<?xml version="1.0" encoding="UTF-8"?>
<svg width="250" height="250" viewBox="0 0 250 250" fill="none" xmlns="http://www.w3.org/2000/svg">
  <path d="M132.991 29.4636C132.991 29.4636 133.236 47.7576 125.205 55.7891C117.173 63.8206 98.8793 63.5756 98.8793 63.5756C98.8793 63.5756 98.6343 45.2816 106.666 37.2501C114.697 29.2186 132.991 29.4636 132.991 29.4636Z" fill="#FF8D00"/>
  <path d="M166.339 62.828C158.308 70.8595 139.769 70.6145 139.769 70.6145C139.769 70.6145 139.524 52.3205 147.555 44.289C155.587 36.2575 174.125 36.5025 174.125 36.5025C174.125 36.5025 174.37 54.7965 166.339 62.828Z" fill="#7000FF"/>
  <path d="M173.881 105.199C165.85 113.231 147.31 112.986 147.31 112.986C147.31 112.986 147.065 94.692 155.097 86.6605C163.128 78.629 181.668 78.874 181.668 78.874C181.668 78.874 181.913 97.1675 173.881 105.199Z" fill="#4199FF"/>
  <path d="M174.125 148.06C166.094 156.091 147.555 155.846 147.555 155.846C147.555 155.846 147.31 137.552 155.341 129.52C163.373 121.489 181.912 121.734 181.912 121.734C181.912 121.734 182.157 140.028 174.125 148.06Z" fill="#4199FF"/>
  <path d="M147.31 190.43C139.279 198.462 120.74 198.217 120.74 198.217C120.74 198.217 120.495 179.923 128.526 171.891C136.558 163.86 155.097 164.105 155.097 164.105C155.097 164.105 155.342 182.399 147.31 190.43Z" fill="#7000FF"/>
  <path d="M106.91 205.27C98.8788 213.301 80.3397 213.056 80.3397 213.056C80.3397 213.056 80.0947 194.762 88.1262 186.731C96.1577 178.699 114.697 178.944 114.697 178.944C114.697 178.944 114.942 197.238 106.91 205.27Z" fill="#FF8D00"/>
  <path d="M73.7826 171.647C65.7511 179.678 47.4571 179.433 47.4571 179.433C47.4571 179.433 47.2121 161.139 55.2436 153.108C63.2751 145.076 81.5691 145.321 81.5691 145.321C81.5691 145.321 81.8141 163.615 73.7826 171.647Z" fill="#4199FF"/>
  <path d="M73.7827 129.276C65.7512 137.308 47.4572 137.063 47.4572 137.063C47.4572 137.063 47.2122 118.769 55.2437 110.737C63.2752 102.706 81.5692 102.951 81.5692 102.951C81.5692 102.951 81.8142 121.245 73.7827 129.276Z" fill="#FF8D00"/>
  <path d="M106.175 86.9065C98.144 94.938 79.8499 94.693 79.8499 94.693C79.8499 94.693 79.6049 76.399 87.6364 68.3675C95.6679 60.336 113.962 60.581 113.962 60.581C113.962 60.581 114.207 78.875 106.175 86.9065Z" fill="#7000FF"/>
  <path d="M132.991 29.4636C132.991 29.4636 133.236 47.7576 125.205 55.7891C117.173 63.8206 98.8793 63.5756 98.8793 63.5756C98.8793 63.5756 98.6343 45.2816 106.666 37.2501C114.697 29.2186 132.991 29.4636 132.991 29.4636Z" stroke="black" stroke-width="5.5" stroke-miterlimit="10" stroke-linecap="round" stroke-linejoin="round"/>
  <path d="M166.339 62.828C158.308 70.8595 139.769 70.6145 139.769 70.6145C139.769 70.6145 139.524 52.3205 147.555 44.289C155.587 36.2575 174.125 36.5025 174.125 36.5025C174.125 36.5025 174.37 54.7965 166.339 62.828Z" stroke="black" stroke-width="5.5" stroke-miterlimit="10" stroke-linecap="round" stroke-linejoin="round"/>
  <path d="M173.881 105.199C165.85 113.231 147.31 112.986 147.31 112.986C147.31 112.986 147.065 94.692 155.097 86.6605C163.128 78.629 181.668 78.874 181.668 78.874C181.668 78.874 181.913 97.1675 173.881 105.199Z" stroke="black" stroke-width="5.5" stroke-miterlimit="10" stroke-linecap="round" stroke-linejoin="round"/>
  <path d="M174.125 148.06C166.094 156.091 147.555 155.846 147.555 155.846C147.555 155.846 147.31 137.552 155.341 129.52C163.373 121.489 181.912 121.734 181.912 121.734C181.912 121.734 182.157 140.028 174.125 148.06Z" stroke="black" stroke-width="5.5" stroke-miterlimit="10" stroke-linecap="round" stroke-linejoin="round"/>
  <path d="M147.31 190.43C139.279 198.462 120.74 198.217 120.74 198.217C120.74 198.217 120.495 179.923 128.526 171.891C136.558 163.86 155.097 164.105 155.097 164.105C155.097 164.105 155.342 182.399 147.31 190.43Z" stroke="black" stroke-width="5.5" stroke-miterlimit="10" stroke-linecap="round" stroke-linejoin="round"/>
  <path d="M106.91 205.27C98.8788 213.301 80.3397 213.056 80.3397 213.056C80.3397 213.056 80.0947 194.762 88.1262 186.731C96.1577 178.699 114.697 178.944 114.697 178.944C114.697 178.944 114.942 197.238 106.91 205.27Z" stroke="black" stroke-width="5.5" stroke-miterlimit="10" stroke-linecap="round" stroke-linejoin="round"/>
  <path d="M73.7826 171.647C65.7511 179.678 47.4571 179.433 47.4571 179.433C47.4571 179.433 47.2121 161.139 55.2436 153.108C63.2751 145.076 81.5691 145.321 81.5691 145.321C81.5691 145.321 81.8141 163.615 73.7826 171.647Z" stroke="black" stroke-width="5.5" stroke-miterlimit="10" stroke-linecap="round" stroke-linejoin="round"/>
  <path d="M73.7827 129.276C65.7512 137.308 47.4572 137.063 47.4572 137.063C47.4572 137.063 47.2122 118.769 55.2437 110.737C63.2752 102.706 81.5692 102.951 81.5692 102.951C81.5692 102.951 81.8142 121.245 73.7827 129.276Z" stroke="black" stroke-width="5.5" stroke-miterlimit="10" stroke-linecap="round" stroke-linejoin="round"/>
  <path d="M106.175 86.9065C98.144 94.938 79.8499 94.693 79.8499 94.693C79.8499 94.693 79.6049 76.399 87.6364 68.3675C95.6679 60.336 113.962 60.581 113.962 60.581C113.962 60.581 114.207 78.875 106.175 86.9065Z" stroke="black" stroke-width="5.5" stroke-miterlimit="10" stroke-linecap="round" stroke-linejoin="round"/>
</svg>
