<svg width="250" height="150" viewBox="0 0 250 150" fill="none" xmlns="http://www.w3.org/2000/svg">
  <path d="M16.1328 55.3086H30.5273L42.127 112.766H42.3711L53.9707 55.3086H68.3652L50.2246 124H34.2734L16.1328 55.3086Z" fill="#7000FF"/>
  <path d="M80.4531 55.3086L91.8086 93.9648H92.0527L103.408 55.3086H119.359L94.7363 124H89.125L64.502 55.3086H80.4531Z" fill="#FF8D00"/>
  <path d="M131.914 124H118.008V55.3086H162.865V67.8867H131.914V84.082H159.693V96.6602H131.914V124Z" fill="#4199FF"/>
  <path d="M167.904 124V55.3086H181.811V111.422H214.154V124H167.904Z" fill="#7000FF"/>
  <path d="M226.973 124H213.066V55.3086H226.973V124Z" fill="#FF8D00"/>
  <path d="M236.934 124V55.3086H250.84V86.0352H250.596C250.596 81.4779 251.04 77.3594 251.929 73.6797C252.857 69.9609 254.323 66.8223 256.328 64.2637C258.333 61.666 260.944 59.6807 264.16 58.2754C267.376 56.8701 271.242 56.1675 275.76 56.1675C278.444 56.1675 280.927 56.5687 283.209 57.3711C285.491 58.1735 287.496 59.3759 289.219 60.9785C290.981 62.5812 292.407 64.5665 293.496 66.9346C294.626 69.2637 295.374 91.9531 295.74 92.4219L295.984 93.9648L290.074 66.0156H303.98L319.686 124H305.291L295.74 82.7363H295.496L285.945 124H272.529L236.934 124Z" fill="#4199FF"/>
</svg>
