<?xml version="1.0" encoding="UTF-8"?>
<svg width="512" height="512" viewBox="0 0 512 512" fill="none" xmlns="http://www.w3.org/2000/svg">
  <rect width="512" height="512" rx="256" fill="#111111"/>
  <path d="M256 396C332.768 396 396 332.768 396 256C396 179.232 332.768 116 256 116C179.232 116 116 179.232 116 256C116 332.768 179.232 396 256 396Z" stroke="white" stroke-width="24"/>
  <path d="M256 338C301.287 338 338 301.287 338 256C338 210.713 301.287 174 256 174C210.713 174 174 210.713 174 256C174 301.287 210.713 338 256 338Z" stroke="white" stroke-width="24"/>
  <circle cx="256" cy="256" r="32" fill="white"/>
</svg>