<?xml version="1.0" encoding="UTF-8" standalone="no"?>
<svg width="24" height="24" viewBox="0 0 24 24" fill="none" xmlns="http://www.w3.org/2000/svg">
  <path d="M12 0C5.37258 0 0 5.37258 0 12C0 18.6274 5.37258 24 12 24C18.6274 24 24 18.6274 24 12C24 5.37258 18.6274 0 12 0Z" fill="#29ABE2"/>
  <path d="M16.2647 8.70588C16.6727 8.70588 17 8.37863 17 7.97059C17 7.56255 16.6727 7.23529 16.2647 7.23529C15.8567 7.23529 15.5294 7.56255 15.5294 7.97059C15.5294 8.37863 15.8567 8.70588 16.2647 8.70588Z" fill="white"/>
  <path d="M10.1618 16.5294H8.11765V7.5H10.1618V16.5294Z" fill="white"/>
  <path d="M15.8824 16.5294H13.8383V7.5H15.8824V16.5294Z" fill="white"/>
  <path d="M13.0147 12.0147H11.0294V14H13.0147V12.0147Z" fill="white"/>
</svg>