<?xml version="1.0" encoding="UTF-8" standalone="no"?>
<svg width="48" height="48" viewBox="0 0 48 48" fill="none" xmlns="http://www.w3.org/2000/svg">
  <path d="M23.9999 0C10.7452 0 0 10.7452 0 24C0 37.2548 10.7452 48 23.9999 48C37.2547 48 48 37.2548 48 24C48 10.7452 37.2547 0 23.9999 0Z" fill="#29ABE2"/>
  <path d="M32.5294 17.4118C33.3455 17.4118 34 16.7572 34 15.9412C34 15.1251 33.3455 14.4706 32.5294 14.4706C31.7133 14.4706 31.0588 15.1251 31.0588 15.9412C31.0588 16.7572 31.7133 17.4118 32.5294 17.4118Z" fill="white"/>
  <path d="M20.3235 33.0588H16.2353V15H20.3235V33.0588Z" fill="white"/>
  <path d="M31.7647 33.0588H27.6765V15H31.7647V33.0588Z" fill="white"/>
  <path d="M26.0294 24.0294H22.0588V28H26.0294V24.0294Z" fill="white"/>
</svg>