<?xml version="1.0" encoding="UTF-8"?>
<svg width="200" height="48" viewBox="0 0 200 48" fill="none" xmlns="http://www.w3.org/2000/svg">
  <path d="M48.65 24.55C48.65 11.65 38.55 1.5 25.7 1.5C12.85 1.5 2.75 11.65 2.75 24.55C2.75 37.45 12.85 47.6 25.7 47.6C38.55 47.6 48.65 37.45 48.65 24.55Z" fill="white"/>
  <path d="M25.7 9.05C17.05 9.05 10.15 15.85 10.15 24.55C10.15 33.25 17.05 40.05 25.7 40.05C34.35 40.05 41.25 33.25 41.25 24.55C41.25 15.85 34.35 9.05 25.7 9.05ZM25.7 32.1C21.4 32.1 18 28.8 18 24.55C18 20.3 21.4 17 25.7 17C29.95 17 33.4 20.3 33.4 24.55C33.4 28.8 29.95 32.1 25.7 32.1Z" fill="#333333"/>
  <path d="M61.7 27.1V11.15H69.35C73.55 11.15 76.4 13.95 76.4 18.1C76.4 22.25 73.55 25.15 69.35 25.15H65.1V27.1H61.7ZM65.1 22.1H69.15C71.4 22.1 72.95 20.65 72.95 18.1C72.95 15.6 71.4 14.2 69.15 14.2H65.1V22.1Z" fill="#333333"/>
  <path d="M85.9 27.4C81.45 27.4 78.15 24.15 78.15 19.65C78.15 15.15 81.45 11.9 85.9 11.9C90.35 11.9 93.65 15.15 93.65 19.65C93.65 24.15 90.35 27.4 85.9 27.4ZM85.9 24.5C88.3 24.5 90.25 22.45 90.25 19.65C90.25 16.85 88.3 14.8 85.9 14.8C83.5 14.8 81.55 16.85 81.55 19.65C81.55 22.45 83.5 24.5 85.9 24.5Z" fill="#333333"/>
  <path d="M107.15 22.4C106.85 25.35 104.25 27.4 100.5 27.4C96.05 27.4 92.75 24.25 92.75 19.7C92.75 15.1 96.05 11.9 100.4 11.9C104.5 11.9 107.05 14.65 107.05 19C107.05 19.5 107.05 19.8 107 20.05H96.1C96.35 22.45 98.05 24.5 100.55 24.5C102.4 24.5 103.65 23.55 104.05 21.95L107.15 22.4ZM103.8 17.7C103.75 15.7 102.3 14.65 100.35 14.65C98.4 14.65 96.75 15.8 96.3 17.7H103.8Z" fill="#333333"/>
  <path d="M109.1 27.1V12.15H112.45V14.65C113.3 13 114.95 11.9 117.05 11.9C120.1 11.9 122.4 14.05 122.4 17.9V27.1H119.05V18.3C119.05 16.15 117.9 14.8 115.9 14.8C113.9 14.8 112.45 16.3 112.45 18.65V27.1H109.1Z" fill="#333333"/>
  <path d="M132.85 27.4C128.7 27.4 125.25 24.15 125.25 19.65C125.25 15.15 128.6 11.9 132.8 11.9C134.9 11.9 136.65 12.7 137.7 14.05V12.15H141.05V27.1H137.7V25.25C136.65 26.65 134.9 27.4 132.85 27.4ZM133.3 24.5C135.7 24.5 137.7 22.55 137.7 19.65C137.7 16.75 135.7 14.8 133.3 14.8C130.9 14.8 128.9 16.75 128.9 19.65C128.9 22.55 130.9 24.5 133.3 24.5Z" fill="#333333"/>
  <path d="M144.05 27.1V12.15H147.4V14.65C148.25 13 149.9 11.9 152 11.9C155.05 11.9 157.35 14.05 157.35 17.9V27.1H154V18.3C154 16.15 152.85 14.8 150.85 14.8C148.85 14.8 147.4 16.3 147.4 18.65V27.1H144.05Z" fill="#333333"/>
  <path d="M172.45 14.7H169.8V27.1H166.45V14.7H163.8V12.15H166.45V8.3H169.8V12.15H172.45V14.7Z" fill="#333333"/>
  <path d="M189.6 27.1V25.2C188.55 26.65 186.85 27.4 184.8 27.4C180.6 27.4 177.25 24.2 177.25 19.65C177.25 15.15 180.6 11.9 184.8 11.9C186.85 11.9 188.55 12.7 189.6 14.1V5.5H192.95V27.1H189.6ZM185.2 24.5C187.6 24.5 189.6 22.5 189.6 19.65C189.6 16.8 187.6 14.8 185.2 14.8C182.8 14.8 180.8 16.8 180.8 19.65C180.8 22.5 182.8 24.5 185.2 24.5Z" fill="#333333"/>
</svg>