<?xml version="1.0" encoding="UTF-8"?>
<svg width="250" height="60" viewBox="0 0 250 60" fill="none" xmlns="http://www.w3.org/2000/svg">
  <g clip-path="url(#clip0_1_2)">
    <path d="M30 15.8C39.4 15.8 46.9 23.3 46.9 32.7C46.9 42.1 39.4 49.6 30 49.6C20.6 49.6 13.1 42.1 13.1 32.7C13.1 23.3 20.6 15.8 30 15.8ZM30 10C17.3 10 7.3 19.9 7.3 32.7C7.3 45.5 17.3 55.4 30 55.4C42.7 55.4 52.7 45.5 52.7 32.7C52.7 19.9 42.7 10 30 10Z" fill="white"/>
    <path d="M31.8 29.1V19.4H28.2V29.1H23.6V32.7H28.2V42.4H31.8V32.7H36.4V29.1H31.8Z" fill="white"/>
    <path d="M79.3 38.3H88.2V34.8H79.3V30.7H89.5V27.2H75.3V43.8H90V40.3H79.3V38.3Z" fill="white"/>
    <path d="M105.5 30.6V38.6C105.5 40.5 104.4 40.8 103.6 40.8C102.5 40.8 101.5 40.2 101.5 38.6V30.6H97.7V39.2C97.7 42.6 100 44.1 102.8 44.1C104.5 44.1 106.2 43.2 107 41.9V43.8H110.5V30.6H105.5Z" fill="white"/>
    <path d="M128.2 30.3C126.5 30.3 124.8 31.2 124 32.5V30.6H120.5V43.8H124.3V35.8C124.3 33.9 125.4 33.6 126.2 33.6C127.3 33.6 128.3 34.2 128.3 35.8V43.8H132.1V35.2C132.1 31.8 129.8 30.3 128.2 30.3Z" fill="white"/>
    <path d="M143.9 30.3C140.5 30.3 137.9 33 137.9 37.2C137.9 41.4 140.5 44.1 143.9 44.1C147.3 44.1 149.9 41.4 149.9 37.2C149.9 33 147.3 30.3 143.9 30.3ZM143.9 40.8C142.6 40.8 141.7 39.2 141.7 37.2C141.7 35.2 142.6 33.6 143.9 33.6C145.2 33.6 146.1 35.2 146.1 37.2C146.1 39.2 145.2 40.8 143.9 40.8Z" fill="white"/>
    <path d="M157.8 33.9V30.6H154.3V43.8H158.1V38.1C158.1 35.2 160.5 34.4 162.5 34.7V30.3C160.7 30.3 158.8 31 157.8 33.9Z" fill="white"/>
    <path d="M176.1 30.6L173.9 38.8L171.5 30.6H168.8L166.4 38.8L164.2 30.6H160.3L164.6 43.8H168.1L170.3 36.6L172.5 43.8H176L180.3 30.6H176.1Z" fill="white"/>
    <path d="M193.4 37.2C193.4 33 190.8 30.3 187.4 30.3C184 30.3 181.4 33 181.4 37.2C181.4 41.4 184 44.1 187.4 44.1C190.8 44.1 193.4 41.4 193.4 37.2ZM185.2 37.2C185.2 35.2 186.1 33.6 187.4 33.6C188.7 33.6 189.6 35.2 189.6 37.2C189.6 39.2 188.7 40.8 187.4 40.8C186.1 40.8 185.2 39.2 185.2 37.2Z" fill="white"/>
    <path d="M205.6 43.8V27.2H201.8V32.5C201 31.2 199.3 30.3 197.6 30.3C194.2 30.3 191.6 33 191.6 37.2C191.6 41.4 194.2 44.1 197.6 44.1C199.3 44.1 201 43.2 201.8 41.9V43.8H205.6ZM198.3 40.8C197 40.8 195.4 39.9 195.4 37.2C195.4 34.5 197 33.6 198.3 33.6C199.6 33.6 201.2 34.5 201.2 37.2C201.2 39.9 199.6 40.8 198.3 40.8Z" fill="white"/>
    <path d="M221.9 33.6V30.6H218.7V26.7H214.9V30.6H212.7V33.6H214.9V39.4C214.9 42.8 217.2 44.3 220 44.3C221 44.3 221.9 44.1 222.6 43.9V40.5C222.1 40.6 221.5 40.8 220.7 40.8C219.6 40.8 218.7 40.5 218.7 38.9V33.6H221.9Z" fill="white"/>
    <path d="M231.5 30.3C228.2 30.3 225.5 33 225.5 37.2C225.5 41.4 228.2 44.1 231.8 44.1C234.1 44.1 236.1 43 237.2 41L234.8 39.1C234.3 40 233.3 40.8 231.9 40.8C230.4 40.8 229.3 39.9 229.2 38.6H237.5V37.2C237.5 33 234.9 30.3 231.5 30.3ZM229.2 36C229.3 34.7 230.3 33.6 231.6 33.6C233 33.6 233.8 34.7 233.9 36H229.2Z" fill="white"/>
    <path d="M244.4 33.9V30.6H240.9V43.8H244.7V38.1C244.7 35.2 247.1 34.4 249.1 34.7V30.3C247.3 30.3 245.4 31 244.4 33.9Z" fill="white"/>
  </g>
  <defs>
    <clipPath id="clip0_1_2">
      <rect width="250" height="60" fill="white"/>
    </clipPath>
  </defs>
</svg>